<?xml version="1.0" encoding="UTF-8" standalone="no"?>
<!DOCTYPE svg PUBLIC "-//W3C//DTD SVG 1.1//EN"
 "http://www.w3.org/Graphics/SVG/1.1/DTD/svg11.dtd">
<!-- Generated by graphviz version 2.44.1 (20200629.0846)
 -->
<!-- Pages: 1 -->
<svg width="893pt" height="332pt"
 viewBox="0.00 0.00 892.78 332.00" xmlns="http://www.w3.org/2000/svg" xmlns:xlink="http://www.w3.org/1999/xlink">
<g id="graph0" class="graph" transform="scale(1 1) rotate(0) translate(4 328)">
<polygon fill="white" stroke="transparent" points="-4,4 -4,-328 888.78,-328 888.78,4 -4,4"/>
<!-- [root] google_compute_instance.vm_instance (expand) -->
<g id="node1" class="node">
<title>[root] google_compute_instance.vm_instance (expand)</title>
<polygon fill="none" stroke="black" points="547.06,-180 316.06,-180 316.06,-144 547.06,-144 547.06,-180"/>
<text text-anchor="middle" x="431.56" y="-158.3" font-family="Times,serif" font-size="14.00">google_compute_instance.vm_instance</text>
</g>
<!-- [root] provider[&quot;registry.terraform.io/hashicorp/google&quot;] -->
<g id="node2" class="node">
<title>[root] provider[&quot;registry.terraform.io/hashicorp/google&quot;]</title>
<polygon fill="none" stroke="black" points="266.56,-108 -0.06,-90 266.56,-72 533.17,-90 266.56,-108"/>
<text text-anchor="middle" x="266.56" y="-86.3" font-family="Times,serif" font-size="14.00">provider[&quot;registry.terraform.io/hashicorp/google&quot;]</text>
</g>
<!-- [root] google_compute_instance.vm_instance (expand)&#45;&gt;[root] provider[&quot;registry.terraform.io/hashicorp/google&quot;] -->
<g id="edge1" class="edge">
<title>[root] google_compute_instance.vm_instance (expand)&#45;&gt;[root] provider[&quot;registry.terraform.io/hashicorp/google&quot;]</title>
<path fill="none" stroke="black" d="M391.19,-143.88C366.74,-133.5 335.55,-120.27 310.48,-109.63"/>
<polygon fill="black" stroke="black" points="311.77,-106.38 301.2,-105.7 309.04,-112.82 311.77,-106.38"/>
</g>
<!-- [root] var.vm_name -->
<g id="node5" class="node">
<title>[root] var.vm_name</title>
<polygon fill="none" stroke="black" points="637.56,-108 551.56,-108 551.56,-72 643.56,-72 643.56,-102 637.56,-108"/>
<polyline fill="none" stroke="black" points="637.56,-108 637.56,-102 "/>
<polyline fill="none" stroke="black" points="643.56,-102 637.56,-102 "/>
<text text-anchor="middle" x="597.56" y="-86.3" font-family="Times,serif" font-size="14.00">var.vm_name</text>
</g>
<!-- [root] google_compute_instance.vm_instance (expand)&#45;&gt;[root] var.vm_name -->
<g id="edge2" class="edge">
<title>[root] google_compute_instance.vm_instance (expand)&#45;&gt;[root] var.vm_name</title>
<path fill="none" stroke="black" d="M472.16,-143.88C494.96,-134.26 523.58,-122.19 547.73,-112.01"/>
<polygon fill="black" stroke="black" points="549.23,-115.18 557.08,-108.07 546.51,-108.73 549.23,-115.18"/>
</g>
<!-- [root] var.project_id -->
<g id="node3" class="node">
<title>[root] var.project_id</title>
<polygon fill="none" stroke="black" points="256.56,-36 170.56,-36 170.56,0 262.56,0 262.56,-30 256.56,-36"/>
<polyline fill="none" stroke="black" points="256.56,-36 256.56,-30 "/>
<polyline fill="none" stroke="black" points="262.56,-30 256.56,-30 "/>
<text text-anchor="middle" x="216.56" y="-14.3" font-family="Times,serif" font-size="14.00">var.project_id</text>
</g>
<!-- [root] provider[&quot;registry.terraform.io/hashicorp/google&quot;]&#45;&gt;[root] var.project_id -->
<g id="edge5" class="edge">
<title>[root] provider[&quot;registry.terraform.io/hashicorp/google&quot;]&#45;&gt;[root] var.project_id</title>
<path fill="none" stroke="black" d="M254.96,-72.76C248.95,-64.35 241.48,-53.89 234.72,-44.44"/>
<polygon fill="black" stroke="black" points="237.45,-42.23 228.79,-36.12 231.75,-46.3 237.45,-42.23"/>
</g>
<!-- [root] var.region -->
<g id="node4" class="node">
<title>[root] var.region</title>
<polygon fill="none" stroke="black" points="346.06,-36 281.06,-36 281.06,0 352.06,0 352.06,-30 346.06,-36"/>
<polyline fill="none" stroke="black" points="346.06,-36 346.06,-30 "/>
<polyline fill="none" stroke="black" points="352.06,-30 346.06,-30 "/>
<text text-anchor="middle" x="316.56" y="-14.3" font-family="Times,serif" font-size="14.00">var.region</text>
</g>
<!-- [root] provider[&quot;registry.terraform.io/hashicorp/google&quot;]&#45;&gt;[root] var.region -->
<g id="edge6" class="edge">
<title>[root] provider[&quot;registry.terraform.io/hashicorp/google&quot;]&#45;&gt;[root] var.region</title>
<path fill="none" stroke="black" d="M278.15,-72.76C284.16,-64.35 291.63,-53.89 298.39,-44.44"/>
<polygon fill="black" stroke="black" points="301.36,-46.3 304.32,-36.12 295.66,-42.23 301.36,-46.3"/>
</g>
<!-- [root] meta.count&#45;boundary (EachMode fixup) -->
<g id="node6" class="node">
<title>[root] meta.count&#45;boundary (EachMode fixup)</title>
<ellipse fill="none" stroke="black" cx="216.56" cy="-234" rx="176.27" ry="18"/>
<text text-anchor="middle" x="216.56" y="-230.3" font-family="Times,serif" font-size="14.00">[root] meta.count&#45;boundary (EachMode fixup)</text>
</g>
<!-- [root] meta.count&#45;boundary (EachMode fixup)&#45;&gt;[root] google_compute_instance.vm_instance (expand) -->
<g id="edge3" class="edge">
<title>[root] meta.count&#45;boundary (EachMode fixup)&#45;&gt;[root] google_compute_instance.vm_instance (expand)</title>
<path fill="none" stroke="black" d="M266.69,-216.68C297.28,-206.72 336.63,-193.91 369.21,-183.3"/>
<polygon fill="black" stroke="black" points="370.66,-186.51 379.09,-180.08 368.5,-179.85 370.66,-186.51"/>
</g>
<!-- [root] provider[&quot;registry.terraform.io/hashicorp/google&quot;] (close) -->
<g id="node7" class="node">
<title>[root] provider[&quot;registry.terraform.io/hashicorp/google&quot;] (close)</title>
<ellipse fill="none" stroke="black" cx="647.56" cy="-234" rx="237.46" ry="18"/>
<text text-anchor="middle" x="647.56" y="-230.3" font-family="Times,serif" font-size="14.00">[root] provider[&quot;registry.terraform.io/hashicorp/google&quot;] (close)</text>
</g>
<!-- [root] provider[&quot;registry.terraform.io/hashicorp/google&quot;] (close)&#45;&gt;[root] google_compute_instance.vm_instance (expand) -->
<g id="edge4" class="edge">
<title>[root] provider[&quot;registry.terraform.io/hashicorp/google&quot;] (close)&#45;&gt;[root] google_compute_instance.vm_instance (expand)</title>
<path fill="none" stroke="black" d="M596.37,-216.41C565.73,-206.48 526.56,-193.79 494.1,-183.27"/>
<polygon fill="black" stroke="black" points="494.85,-179.83 484.25,-180.08 492.69,-186.49 494.85,-179.83"/>
</g>
<!-- [root] root -->
<g id="node8" class="node">
<title>[root] root</title>
<ellipse fill="none" stroke="black" cx="431.56" cy="-306" rx="47.39" ry="18"/>
<text text-anchor="middle" x="431.56" y="-302.3" font-family="Times,serif" font-size="14.00">[root] root</text>
</g>
<!-- [root] root&#45;&gt;[root] meta.count&#45;boundary (EachMode fixup) -->
<g id="edge7" class="edge">
<title>[root] root&#45;&gt;[root] meta.count&#45;boundary (EachMode fixup)</title>
<path fill="none" stroke="black" d="M396.53,-293.6C364.06,-283.03 315.08,-267.08 276.41,-254.49"/>
<polygon fill="black" stroke="black" points="277.41,-251.13 266.82,-251.36 275.24,-257.79 277.41,-251.13"/>
</g>
<!-- [root] root&#45;&gt;[root] provider[&quot;registry.terraform.io/hashicorp/google&quot;] (close) -->
<g id="edge8" class="edge">
<title>[root] root&#45;&gt;[root] provider[&quot;registry.terraform.io/hashicorp/google&quot;] (close)</title>
<path fill="none" stroke="black" d="M466.74,-293.6C499.14,-283.1 547.91,-267.29 586.63,-254.74"/>
<polygon fill="black" stroke="black" points="587.81,-258.04 596.24,-251.63 585.65,-251.38 587.81,-258.04"/>
</g>
</g>
</svg>
