<?xml version="1.0" encoding="UTF-8" standalone="no"?>
<!DOCTYPE svg PUBLIC "-//W3C//DTD SVG 1.1//EN"
 "http://www.w3.org/Graphics/SVG/1.1/DTD/svg11.dtd">
<!-- Generated by graphviz version 2.44.1 (20200629.0846)
 -->
<!-- Pages: 1 -->
<svg width="1121pt" height="404pt"
 viewBox="0.00 0.00 1121.26 404.00" xmlns="http://www.w3.org/2000/svg" xmlns:xlink="http://www.w3.org/1999/xlink">
<g id="graph0" class="graph" transform="scale(1 1) rotate(0) translate(4 400)">
<polygon fill="white" stroke="transparent" points="-4,4 -4,-400 1117.26,-400 1117.26,4 -4,4"/>
<!-- [root] google_compute_firewall.default (expand) -->
<g id="node1" class="node">
<title>[root] google_compute_firewall.default (expand)</title>
<polygon fill="none" stroke="black" points="483.63,-252 286.63,-252 286.63,-216 483.63,-216 483.63,-252"/>
<text text-anchor="middle" x="385.13" y="-230.3" font-family="Times,serif" font-size="14.00">google_compute_firewall.default</text>
</g>
<!-- [root] provider[&quot;registry.terraform.io/hashicorp/google&quot;] -->
<g id="node4" class="node">
<title>[root] provider[&quot;registry.terraform.io/hashicorp/google&quot;]</title>
<polygon fill="none" stroke="black" points="449.13,-108 182.52,-90 449.13,-72 715.75,-90 449.13,-108"/>
<text text-anchor="middle" x="449.13" y="-86.3" font-family="Times,serif" font-size="14.00">provider[&quot;registry.terraform.io/hashicorp/google&quot;]</text>
</g>
<!-- [root] google_compute_firewall.default (expand)&#45;&gt;[root] provider[&quot;registry.terraform.io/hashicorp/google&quot;] -->
<g id="edge1" class="edge">
<title>[root] google_compute_firewall.default (expand)&#45;&gt;[root] provider[&quot;registry.terraform.io/hashicorp/google&quot;]</title>
<path fill="none" stroke="black" d="M386.3,-215.79C388.12,-197.24 392.7,-167.25 404.13,-144 409.36,-133.39 417.17,-123.13 424.84,-114.52"/>
<polygon fill="black" stroke="black" points="427.49,-116.8 431.75,-107.1 422.37,-112.03 427.49,-116.8"/>
</g>
<!-- [root] google_compute_instance.default (expand) -->
<g id="node2" class="node">
<title>[root] google_compute_instance.default (expand)</title>
<polygon fill="none" stroke="black" points="613.13,-180 413.13,-180 413.13,-144 613.13,-144 613.13,-180"/>
<text text-anchor="middle" x="513.13" y="-158.3" font-family="Times,serif" font-size="14.00">google_compute_instance.default</text>
</g>
<!-- [root] google_compute_instance.default (expand)&#45;&gt;[root] provider[&quot;registry.terraform.io/hashicorp/google&quot;] -->
<g id="edge2" class="edge">
<title>[root] google_compute_instance.default (expand)&#45;&gt;[root] provider[&quot;registry.terraform.io/hashicorp/google&quot;]</title>
<path fill="none" stroke="black" d="M497.31,-143.7C489.33,-134.97 479.53,-124.24 470.85,-114.75"/>
<polygon fill="black" stroke="black" points="473.23,-112.16 463.9,-107.14 468.06,-116.89 473.23,-112.16"/>
</g>
<!-- [root] random_id.instance_id (expand) -->
<g id="node6" class="node">
<title>[root] random_id.instance_id (expand)</title>
<polygon fill="none" stroke="black" points="908.63,-108 767.63,-108 767.63,-72 908.63,-72 908.63,-108"/>
<text text-anchor="middle" x="838.13" y="-86.3" font-family="Times,serif" font-size="14.00">random_id.instance_id</text>
</g>
<!-- [root] google_compute_instance.default (expand)&#45;&gt;[root] random_id.instance_id (expand) -->
<g id="edge3" class="edge">
<title>[root] google_compute_instance.default (expand)&#45;&gt;[root] random_id.instance_id (expand)</title>
<path fill="none" stroke="black" d="M592.22,-143.97C642.43,-133.15 707.2,-119.2 757.67,-108.33"/>
<polygon fill="black" stroke="black" points="758.52,-111.73 767.56,-106.2 757.05,-104.88 758.52,-111.73"/>
</g>
<!-- [root] output.ip -->
<g id="node3" class="node">
<title>[root] output.ip</title>
<polygon fill="none" stroke="black" points="232.63,-252 173.63,-252 173.63,-216 238.63,-216 238.63,-246 232.63,-252"/>
<polyline fill="none" stroke="black" points="232.63,-252 232.63,-246 "/>
<polyline fill="none" stroke="black" points="238.63,-246 232.63,-246 "/>
<text text-anchor="middle" x="206.13" y="-230.3" font-family="Times,serif" font-size="14.00">output.ip</text>
</g>
<!-- [root] output.ip&#45;&gt;[root] google_compute_instance.default (expand) -->
<g id="edge6" class="edge">
<title>[root] output.ip&#45;&gt;[root] google_compute_instance.default (expand)</title>
<path fill="none" stroke="black" d="M238.99,-225.03C250.98,-222.15 264.66,-218.89 277.13,-216 326.38,-204.57 381.51,-192.17 426.09,-182.24"/>
<polygon fill="black" stroke="black" points="427.01,-185.62 436.01,-180.03 425.49,-178.79 427.01,-185.62"/>
</g>
<!-- [root] var.project_id -->
<g id="node7" class="node">
<title>[root] var.project_id</title>
<polygon fill="none" stroke="black" points="533.13,-36 447.13,-36 447.13,0 539.13,0 539.13,-30 533.13,-36"/>
<polyline fill="none" stroke="black" points="533.13,-36 533.13,-30 "/>
<polyline fill="none" stroke="black" points="539.13,-30 533.13,-30 "/>
<text text-anchor="middle" x="493.13" y="-14.3" font-family="Times,serif" font-size="14.00">var.project_id</text>
</g>
<!-- [root] provider[&quot;registry.terraform.io/hashicorp/google&quot;]&#45;&gt;[root] var.project_id -->
<g id="edge9" class="edge">
<title>[root] provider[&quot;registry.terraform.io/hashicorp/google&quot;]&#45;&gt;[root] var.project_id</title>
<path fill="none" stroke="black" d="M459.56,-72.41C464.67,-64.28 470.94,-54.31 476.68,-45.18"/>
<polygon fill="black" stroke="black" points="479.81,-46.78 482.17,-36.45 473.88,-43.05 479.81,-46.78"/>
</g>
<!-- [root] var.region -->
<g id="node8" class="node">
<title>[root] var.region</title>
<polygon fill="none" stroke="black" points="422.63,-36 357.63,-36 357.63,0 428.63,0 428.63,-30 422.63,-36"/>
<polyline fill="none" stroke="black" points="422.63,-36 422.63,-30 "/>
<polyline fill="none" stroke="black" points="428.63,-30 422.63,-30 "/>
<text text-anchor="middle" x="393.13" y="-14.3" font-family="Times,serif" font-size="14.00">var.region</text>
</g>
<!-- [root] provider[&quot;registry.terraform.io/hashicorp/google&quot;]&#45;&gt;[root] var.region -->
<g id="edge10" class="edge">
<title>[root] provider[&quot;registry.terraform.io/hashicorp/google&quot;]&#45;&gt;[root] var.region</title>
<path fill="none" stroke="black" d="M436.15,-72.76C429.35,-64.27 420.88,-53.68 413.25,-44.15"/>
<polygon fill="black" stroke="black" points="415.81,-41.75 406.83,-36.12 410.35,-46.12 415.81,-41.75"/>
</g>
<!-- [root] provider[&quot;registry.terraform.io/hashicorp/random&quot;] -->
<g id="node5" class="node">
<title>[root] provider[&quot;registry.terraform.io/hashicorp/random&quot;]</title>
<polygon fill="none" stroke="black" points="838.13,-36 565.99,-18 838.13,0 1110.28,-18 838.13,-36"/>
<text text-anchor="middle" x="838.13" y="-14.3" font-family="Times,serif" font-size="14.00">provider[&quot;registry.terraform.io/hashicorp/random&quot;]</text>
</g>
<!-- [root] random_id.instance_id (expand)&#45;&gt;[root] provider[&quot;registry.terraform.io/hashicorp/random&quot;] -->
<g id="edge12" class="edge">
<title>[root] random_id.instance_id (expand)&#45;&gt;[root] provider[&quot;registry.terraform.io/hashicorp/random&quot;]</title>
<path fill="none" stroke="black" d="M838.13,-71.7C838.13,-63.98 838.13,-54.71 838.13,-46.11"/>
<polygon fill="black" stroke="black" points="841.63,-46.1 838.13,-36.1 834.63,-46.1 841.63,-46.1"/>
</g>
<!-- [root] meta.count&#45;boundary (EachMode fixup) -->
<g id="node9" class="node">
<title>[root] meta.count&#45;boundary (EachMode fixup)</title>
<ellipse fill="none" stroke="black" cx="176.13" cy="-306" rx="176.27" ry="18"/>
<text text-anchor="middle" x="176.13" y="-302.3" font-family="Times,serif" font-size="14.00">[root] meta.count&#45;boundary (EachMode fixup)</text>
</g>
<!-- [root] meta.count&#45;boundary (EachMode fixup)&#45;&gt;[root] google_compute_firewall.default (expand) -->
<g id="edge4" class="edge">
<title>[root] meta.count&#45;boundary (EachMode fixup)&#45;&gt;[root] google_compute_firewall.default (expand)</title>
<path fill="none" stroke="black" d="M224.87,-288.68C254.6,-278.72 292.86,-265.91 324.53,-255.3"/>
<polygon fill="black" stroke="black" points="325.76,-258.58 334.13,-252.08 323.54,-251.94 325.76,-258.58"/>
</g>
<!-- [root] meta.count&#45;boundary (EachMode fixup)&#45;&gt;[root] output.ip -->
<g id="edge5" class="edge">
<title>[root] meta.count&#45;boundary (EachMode fixup)&#45;&gt;[root] output.ip</title>
<path fill="none" stroke="black" d="M183.55,-287.7C186.93,-279.81 191,-270.3 194.76,-261.55"/>
<polygon fill="black" stroke="black" points="198.08,-262.67 198.8,-252.1 191.65,-259.92 198.08,-262.67"/>
</g>
<!-- [root] provider[&quot;registry.terraform.io/hashicorp/google&quot;] (close) -->
<g id="node10" class="node">
<title>[root] provider[&quot;registry.terraform.io/hashicorp/google&quot;] (close)</title>
<ellipse fill="none" stroke="black" cx="607.13" cy="-306" rx="237.46" ry="18"/>
<text text-anchor="middle" x="607.13" y="-302.3" font-family="Times,serif" font-size="14.00">[root] provider[&quot;registry.terraform.io/hashicorp/google&quot;] (close)</text>
</g>
<!-- [root] provider[&quot;registry.terraform.io/hashicorp/google&quot;] (close)&#45;&gt;[root] google_compute_firewall.default (expand) -->
<g id="edge7" class="edge">
<title>[root] provider[&quot;registry.terraform.io/hashicorp/google&quot;] (close)&#45;&gt;[root] google_compute_firewall.default (expand)</title>
<path fill="none" stroke="black" d="M554.52,-288.41C522.9,-278.44 482.43,-265.68 448.98,-255.13"/>
<polygon fill="black" stroke="black" points="449.89,-251.75 439.3,-252.08 447.78,-258.42 449.89,-251.75"/>
</g>
<!-- [root] provider[&quot;registry.terraform.io/hashicorp/google&quot;] (close)&#45;&gt;[root] google_compute_instance.default (expand) -->
<g id="edge8" class="edge">
<title>[root] provider[&quot;registry.terraform.io/hashicorp/google&quot;] (close)&#45;&gt;[root] google_compute_instance.default (expand)</title>
<path fill="none" stroke="black" d="M595.8,-287.87C579.49,-263.24 549.3,-217.64 530.27,-188.88"/>
<polygon fill="black" stroke="black" points="532.95,-186.6 524.51,-180.19 527.11,-190.46 532.95,-186.6"/>
</g>
<!-- [root] provider[&quot;registry.terraform.io/hashicorp/random&quot;] (close) -->
<g id="node11" class="node">
<title>[root] provider[&quot;registry.terraform.io/hashicorp/random&quot;] (close)</title>
<ellipse fill="none" stroke="black" cx="872.13" cy="-162" rx="241.26" ry="18"/>
<text text-anchor="middle" x="872.13" y="-158.3" font-family="Times,serif" font-size="14.00">[root] provider[&quot;registry.terraform.io/hashicorp/random&quot;] (close)</text>
</g>
<!-- [root] provider[&quot;registry.terraform.io/hashicorp/random&quot;] (close)&#45;&gt;[root] random_id.instance_id (expand) -->
<g id="edge11" class="edge">
<title>[root] provider[&quot;registry.terraform.io/hashicorp/random&quot;] (close)&#45;&gt;[root] random_id.instance_id (expand)</title>
<path fill="none" stroke="black" d="M863.73,-143.7C859.86,-135.73 855.18,-126.1 850.89,-117.26"/>
<polygon fill="black" stroke="black" points="853.96,-115.57 846.44,-108.1 847.66,-118.63 853.96,-115.57"/>
</g>
<!-- [root] root -->
<g id="node12" class="node">
<title>[root] root</title>
<ellipse fill="none" stroke="black" cx="607.13" cy="-378" rx="47.39" ry="18"/>
<text text-anchor="middle" x="607.13" y="-374.3" font-family="Times,serif" font-size="14.00">[root] root</text>
</g>
<!-- [root] root&#45;&gt;[root] meta.count&#45;boundary (EachMode fixup) -->
<g id="edge13" class="edge">
<title>[root] root&#45;&gt;[root] meta.count&#45;boundary (EachMode fixup)</title>
<path fill="none" stroke="black" d="M564.23,-370.03C497.43,-359.18 366.77,-337.96 275.6,-323.15"/>
<polygon fill="black" stroke="black" points="275.95,-319.67 265.52,-321.52 274.83,-326.57 275.95,-319.67"/>
</g>
<!-- [root] root&#45;&gt;[root] provider[&quot;registry.terraform.io/hashicorp/google&quot;] (close) -->
<g id="edge14" class="edge">
<title>[root] root&#45;&gt;[root] provider[&quot;registry.terraform.io/hashicorp/google&quot;] (close)</title>
<path fill="none" stroke="black" d="M607.13,-359.7C607.13,-351.98 607.13,-342.71 607.13,-334.11"/>
<polygon fill="black" stroke="black" points="610.63,-334.1 607.13,-324.1 603.63,-334.1 610.63,-334.1"/>
</g>
<!-- [root] root&#45;&gt;[root] provider[&quot;registry.terraform.io/hashicorp/random&quot;] (close) -->
<g id="edge15" class="edge">
<title>[root] root&#45;&gt;[root] provider[&quot;registry.terraform.io/hashicorp/random&quot;] (close)</title>
<path fill="none" stroke="black" d="M653.11,-373.38C716.73,-367.35 826.79,-352.97 853.13,-324 886.26,-287.58 882.99,-225.77 877.59,-190.27"/>
<polygon fill="black" stroke="black" points="881,-189.43 875.89,-180.15 874.1,-190.59 881,-189.43"/>
</g>
</g>
</svg>
